<svg width="18" height="18" viewBox="0 0 18 18" fill="none" xmlns="http://www.w3.org/2000/svg">
  <defs>
    <linearGradient id="gradient" x1="0%" y1="0%" x2="100%" y2="100%" gradientTransform="rotate(156.44)">
      <stop offset="0%" stop-color="#4B8CE7"/>
      <stop offset="65.18%" stop-color="#186EE7"/>
    </linearGradient>
  </defs>
  <path d="M15.365 8.83438V5.54187C15.365 4.92687 14.9 4.22937 14.3225 3.99687L10.145 2.28688C9.2075 1.90438 8.15 1.90438 7.2125 2.28688L3.035 3.99687C2.465 4.22937 2 4.92687 2 5.54187V8.83438C2 12.5019 4.6625 15.9369 8.3 16.9419C8.5475 17.0094 8.8175 17.0094 9.065 16.9419C12.7025 15.9369 15.365 12.5019 15.365 8.83438ZM9.245 10.1469V12.1194C9.245 12.4269 8.99 12.6819 8.6825 12.6819C8.375 12.6819 8.12 12.4269 8.12 12.1194V10.1469C7.3625 9.90688 6.8075 9.20188 6.8075 8.36938C6.8075 7.33438 7.6475 6.49437 8.6825 6.49437C9.7175 6.49437 10.5575 7.33438 10.5575 8.36938C10.5575 9.20938 10.0025 9.90688 9.245 10.1469Z" fill="url(#gradient)"/>
</svg>
