<svg width="18" height="18" viewBox="0 0 18 18" fill="none" xmlns="http://www.w3.org/2000/svg">
  <defs>
    <linearGradient id="gradFill" x1="0%" y1="0%" x2="100%" y2="100%" gradientTransform="rotate(156.44)">
      <stop offset="0%" stop-color="#4B8CE7"/>
      <stop offset="65.18%" stop-color="#186EE7"/>
    </linearGradient>
    <clipPath id="clip0_163_6990">
      <rect width="18" height="18" fill="white"/>
    </clipPath>
  </defs>
  <g clip-path="url(#clip0_163_6990)">
    <path d="M5.73742 15.6825C5.71492 15.6825 5.68492 15.6975 5.66242 15.6975C4.20742 14.9775 3.02242 13.785 2.29492 12.33C2.29492 12.3075 2.30992 12.2775 2.30992 12.255C3.22492 12.525 4.16992 12.7275 5.10742 12.885C5.27242 13.83 5.46742 14.7675 5.73742 15.6825Z" fill="url(#gradFill)"/>
    <path d="M15.7053 12.3375C14.9628 13.83 13.7253 15.0375 12.2178 15.765C12.5028 14.8125 12.7428 13.8525 12.9003 12.885C13.8453 12.7275 14.7753 12.525 15.6903 12.255C15.6828 12.285 15.7053 12.315 15.7053 12.3375Z" fill="url(#gradFill)"/>
    <path d="M15.7653 5.78249C14.8203 5.49749 13.8678 5.26499 12.9003 5.09999C12.7428 4.13249 12.5103 3.17249 12.2178 2.23499C13.7703 2.97749 15.0228 4.22999 15.7653 5.78249Z" fill="url(#gradFill)"/>
    <path d="M5.73736 2.31748C5.46736 3.23248 5.27236 4.16248 5.11486 5.10748C4.14736 5.25748 3.18736 5.49748 2.23486 5.78248C2.96236 4.27498 4.16986 3.03748 5.66236 2.29498C5.68486 2.29498 5.71486 2.31748 5.73736 2.31748Z" fill="url(#gradFill)"/>
    <path d="M11.6173 4.9425C9.87732 4.7475 8.12232 4.7475 6.38232 4.9425C6.56982 3.915 6.80982 2.8875 7.14732 1.8975C7.16232 1.8375 7.15482 1.7925 7.16232 1.7325C7.75482 1.59 8.36232 1.5 8.99982 1.5C9.62982 1.5 10.2448 1.59 10.8298 1.7325C10.8373 1.7925 10.8373 1.8375 10.8523 1.8975C11.1898 2.895 11.4298 3.915 11.6173 4.9425Z" fill="url(#gradFill)"/>
    <path d="M4.9425 11.6175C3.9075 11.43 2.8875 11.19 1.8975 10.8525C1.8375 10.8375 1.7925 10.845 1.7325 10.8375C1.59 10.245 1.5 9.63751 1.5 9.00001C1.5 8.37001 1.59 7.75501 1.7325 7.17001C1.7925 7.16251 1.8375 7.16251 1.8975 7.14751C2.895 6.81751 3.9075 6.57001 4.9425 6.38251C4.755 8.12251 4.755 9.87751 4.9425 11.6175Z" fill="url(#gradFill)"/>
    <path d="M16.5001 9.00001C16.5001 9.63751 16.4101 10.245 16.2676 10.8375C16.2076 10.845 16.1626 10.8375 16.1026 10.8525C15.1051 11.1825 14.0851 11.43 13.0576 11.6175C13.2526 9.87751 13.2526 8.12251 13.0576 6.38251C14.0851 6.57001 15.1126 6.81001 16.1026 7.14751C16.1626 7.16251 16.2076 7.17001 16.2676 7.17001C16.4101 7.76251 16.5001 8.37001 16.5001 9.00001Z" fill="url(#gradFill)"/>
    <path d="M11.6173 13.0575C11.4298 14.0925 11.1898 15.1125 10.8523 16.1025C10.8373 16.1625 10.8373 16.2075 10.8298 16.2675C10.2448 16.41 9.62982 16.5 8.99982 16.5C8.36232 16.5 7.75482 16.41 7.16232 16.2675C7.15482 16.2075 7.16232 16.1625 7.14732 16.1025C6.81732 15.105 6.56982 14.0925 6.38232 13.0575C7.25232 13.155 8.12232 13.2225 8.99982 13.2225C9.87732 13.2225 10.7548 13.155 11.6173 13.0575Z" fill="url(#gradFill)"/>
    <path d="M11.8225 11.8225C9.94668 12.0592 8.05332 12.0592 6.1775 11.8225C5.94083 9.94668 5.94083 8.05332 6.1775 6.1775C8.05332 5.94083 9.94668 5.94083 11.8225 6.1775C12.0592 8.05332 12.0592 9.94668 11.8225 11.8225Z" fill="url(#gradFill)"/>
  </g>
</svg>
