<svg width="22" height="22" viewBox="0 0 22 22" fill="none" xmlns="http://www.w3.org/2000/svg">
<path d="M6.44531 2.3166C7.60809 3.70007 9.02344 5.70662 9.02344 7.08961C9.02344 7.9211 8.22912 8.90423 7.92193 9.21266C7.67143 9.46506 7.67267 9.87292 7.92447 10.1241C8.17652 10.3749 8.58284 10.3752 8.83463 10.1234C8.98571 9.97234 10.3125 8.60211 10.3125 7.08961C10.3125 4.32582 6.67562 0.607262 6.25741 0.189477C6.07978 0.0111563 5.80237 -0.053082 5.55474 0.0493555C5.31201 0.149731 5.15625 0.387648 5.15625 0.644301V9.55177C4.61605 9.22469 3.95106 9.02321 3.22266 9.02321C1.44517 9.02321 0 10.1795 0 11.6013C0 13.0232 1.44517 14.1795 3.22266 14.1795C5.00014 14.1795 6.44531 13.0232 6.44531 11.6013V2.3166ZM21.7164 4.05593C21.523 3.93996 21.3039 3.91414 21.0977 4.00441L12.0742 7.8716C11.8422 7.97477 11.6875 8.20676 11.6875 8.46461V12.2802L22 7.76848V4.59743C22 4.3782 21.8968 4.18493 21.7164 4.05593ZM11.6875 17.3721C11.1473 17.045 10.4823 16.8435 9.75391 16.8435C7.97642 16.8435 6.53125 17.9998 6.53125 19.4216C6.53125 20.8435 7.97642 21.9998 9.75391 21.9998C11.5314 21.9998 12.9766 20.8435 12.9766 19.4216V13.123L11.6875 13.687V17.3721ZM20.7109 9.7392V13.5049C20.1707 13.1778 19.5058 12.9763 18.7773 12.9763C16.9999 12.9763 15.5547 14.1326 15.5547 15.5545C15.5547 16.9763 16.9999 18.1326 18.7773 18.1326C20.5548 18.1326 22 16.9763 22 15.5545V9.17523L20.7109 9.7392Z" fill="white"/>
</svg>
