<svg width="18" height="18" viewBox="0 0 18 18" fill="none" xmlns="http://www.w3.org/2000/svg">
  <defs>
    <linearGradient id="gradient" x1="0%" y1="0%" x2="100%" y2="100%" gradientTransform="rotate(156.44)">
      <stop offset="0%" stop-color="#4B8CE7"/>
      <stop offset="65.18%" stop-color="#186EE7"/>
    </linearGradient>
  </defs>
  <mask id="mask0_163_7028" style="mask-type:alpha" maskUnits="userSpaceOnUse" x="0" y="0" width="18" height="18">
    <rect width="18" height="18" fill="#D9D9D9"/>
  </mask>
  <g mask="url(#mask0_163_7028)">
    <path d="M12.75 16.5C12.125 16.5 11.5938 16.2812 11.1562 15.8437C10.7188 15.4062 10.5 14.875 10.5 14.25C10.5 14.175 10.5188 14 10.5562 13.725L5.2875 10.65C5.0875 10.8375 4.85625 10.9844 4.59375 11.0906C4.33125 11.1969 4.05 11.25 3.75 11.25C3.125 11.25 2.59375 11.0312 2.15625 10.5937C1.71875 10.1562 1.5 9.625 1.5 9C1.5 8.375 1.71875 7.84375 2.15625 7.40625C2.59375 6.96875 3.125 6.75 3.75 6.75C4.05 6.75 4.33125 6.80312 4.59375 6.90937C4.85625 7.01562 5.0875 7.1625 5.2875 7.35L10.5562 4.275C10.5312 4.1875 10.5156 4.10312 10.5094 4.02187C10.5031 3.94062 10.5 3.85 10.5 3.75C10.5 3.125 10.7188 2.59375 11.1562 2.15625C11.5938 1.71875 12.125 1.5 12.75 1.5C13.375 1.5 13.9062 1.71875 14.3438 2.15625C14.7812 2.59375 15 3.125 15 3.75C15 4.375 14.7812 4.90625 14.3438 5.34375C13.9062 5.78125 13.375 6 12.75 6C12.45 6 12.1687 5.94687 11.9062 5.84062C11.6438 5.73437 11.4125 5.5875 11.2125 5.4L5.94375 8.475C5.96875 8.5625 5.98438 8.64687 5.99063 8.72812C5.99688 8.80937 6 8.9 6 9C6 9.1 5.99688 9.19062 5.99063 9.27187C5.98438 9.35312 5.96875 9.4375 5.94375 9.525L11.2125 12.6C11.4125 12.4125 11.6438 12.2656 11.9062 12.1594C12.1687 12.0531 12.45 12 12.75 12C13.375 12 13.9062 12.2187 14.3438 12.6562C14.7812 13.0937 15 13.625 15 14.25C15 14.875 14.7812 15.4062 14.3438 15.8437C13.9062 16.2812 13.375 16.5 12.75 16.5Z" fill="url(#gradient)"/>
  </g>
</svg>
