<svg width="24" height="22" viewBox="0 0 24 22" fill="none" xmlns="http://www.w3.org/2000/svg">
<g clip-path="url(#clip0_51_6857)">
<path d="M0.916658 8.25002C0.673546 8.25002 0.44039 8.34659 0.268483 8.5185C0.0965762 8.69041 0 8.92356 0 9.16668V12.8333C0 13.0764 0.0965762 13.3096 0.268483 13.4815C0.44039 13.6534 0.673546 13.75 0.916658 13.75C1.15977 13.75 1.39293 13.6534 1.56483 13.4815C1.73674 13.3096 1.83332 13.0764 1.83332 12.8333V9.16668C1.83332 8.92356 1.73674 8.69041 1.56483 8.5185C1.39293 8.34659 1.15977 8.25002 0.916658 8.25002ZM3.84997 6.4167C3.60685 6.4167 3.3737 6.51328 3.20179 6.68518C3.02988 6.85709 2.93331 7.09025 2.93331 7.33336V14.6666C2.93331 14.787 2.95702 14.9062 3.00308 15.0174C3.04915 15.1286 3.11667 15.2297 3.20179 15.3148C3.28691 15.3999 3.38796 15.4674 3.49918 15.5135C3.61039 15.5596 3.72959 15.5833 3.84997 15.5833C3.97034 15.5833 4.08954 15.5596 4.20076 15.5135C4.31197 15.4674 4.41302 15.3999 4.49814 15.3148C4.58326 15.2297 4.65078 15.1286 4.69685 15.0174C4.74291 14.9062 4.76662 14.787 4.76662 14.6666V7.33336C4.76662 7.09025 4.67005 6.85709 4.49814 6.68518C4.32623 6.51328 4.09308 6.4167 3.84997 6.4167ZM22.9165 8.25002C22.6733 8.25002 22.4402 8.34659 22.2683 8.5185C22.0964 8.69041 21.9998 8.92356 21.9998 9.16668V12.8333C21.9998 13.0764 22.0964 13.3096 22.2683 13.4815C22.4402 13.6534 22.6733 13.75 22.9165 13.75C23.1596 13.75 23.3927 13.6534 23.5646 13.4815C23.7365 13.3096 23.8331 13.0764 23.8331 12.8333V9.16668C23.8331 8.92356 23.7365 8.69041 23.5646 8.5185C23.3927 8.34659 23.1596 8.25002 22.9165 8.25002ZM19.9832 6.4167C19.74 6.4167 19.5069 6.51328 19.335 6.68518C19.1631 6.85709 19.0665 7.09025 19.0665 7.33336V14.6666C19.0665 14.9097 19.1631 15.1429 19.335 15.3148C19.5069 15.4867 19.74 15.5833 19.9832 15.5833C20.2263 15.5833 20.4594 15.4867 20.6313 15.3148C20.8032 15.1429 20.8998 14.9097 20.8998 14.6666V7.33336C20.8998 7.09025 20.8032 6.85709 20.6313 6.68518C20.4594 6.51328 20.2263 6.4167 19.9832 6.4167ZM17.9665 4.58338V17.4166C17.9665 18.3891 17.5802 19.3217 16.8926 20.0093C16.2049 20.6969 15.2723 21.0832 14.2999 21.0832H9.53325C8.5608 21.0832 7.62817 20.6969 6.94055 20.0093C6.25292 19.3217 5.86661 18.3891 5.86661 17.4166V4.58338C5.86661 3.61093 6.25292 2.67831 6.94055 1.99068C7.62817 1.30305 8.5608 0.916748 9.53325 0.916748H14.2999C15.2723 0.916748 16.2049 1.30305 16.8926 1.99068C17.5802 2.67831 17.9665 3.61093 17.9665 4.58338Z" fill="white" fill-opacity="0.8"/>
</g>
<defs>
<clipPath id="clip0_51_6857">
<rect width="23.8333" height="22" fill="white"/>
</clipPath>
</defs>
</svg>
