<svg width="25" height="25" viewBox="0 0 25 25" fill="none" xmlns="http://www.w3.org/2000/svg">
  <path d="M19.6071 5.91994L14.4371 2.92994C13.4471 2.35994 11.8971 2.35994 10.9071 2.92994L5.68707 5.93994C3.61707 7.33994 3.49707 7.54994 3.49707 9.77994V15.2099C3.49707 17.4399 3.61707 17.6599 5.72707 19.0799L10.8971 22.0699C11.3971 22.3599 12.0371 22.4999 12.6671 22.4999C13.2971 22.4999 13.9371 22.3599 14.4271 22.0699L19.6471 19.0599C21.7171 17.6599 21.8371 17.4499 21.8371 15.2199V9.77994C21.8371 7.54994 21.7171 7.33994 19.6071 5.91994ZM12.6671 15.7499C10.8771 15.7499 9.41707 14.2899 9.41707 12.4999C9.41707 10.7099 10.8771 9.24994 12.6671 9.24994C14.4571 9.24994 15.9171 10.7099 15.9171 12.4999C15.9171 14.2899 14.4571 15.7499 12.6671 15.7499Z" fill="url(#paint0_linear_95_5093)"/>
  <defs>
    <linearGradient id="paint0_linear_95_5093" x1="5" y1="4" x2="21" y2="21" gradientUnits="userSpaceOnUse">
      <stop stop-color="#4B8CE7"/>
      <stop offset="1" stop-color="#186EE7"/>
    </linearGradient>
  </defs>
</svg>
