<svg width="18" height="18" viewBox="0 0 18 18" fill="none" xmlns="http://www.w3.org/2000/svg">
  <defs>
    <linearGradient id="grad" x1="0%" y1="0%" x2="100%" y2="100%" gradientTransform="rotate(156.44)">
      <stop offset="0%" stop-color="#4B8CE7" />
      <stop offset="65.18%" stop-color="#186EE7" />
    </linearGradient>
  </defs>
  <mask id="mask0_54_8251" style="mask-type:alpha" maskUnits="userSpaceOnUse" x="0" y="0" width="18" height="18">
    <rect width="18" height="18" fill="#D9D9D9"/>
  </mask>
  <g mask="url(#mask0_54_8251)">
    <path d="M5.23125 16.5C4.84375 16.5 4.50938 16.3719 4.22813 16.1156C3.94688 15.8594 3.7875 15.5438 3.75 15.1688L2.25 1.5H15.75L14.25 15.1688C14.2125 15.5438 14.0531 15.8594 13.7719 16.1156C13.4906 16.3719 13.1562 16.5 12.7688 16.5H5.23125ZM4.2375 6H13.7625L14.0625 3H3.9375L4.2375 6ZM9 14.25C9.6 14.25 10.1063 14.0438 10.5188 13.6313C10.9313 13.2188 11.1375 12.7125 11.1375 12.1125C11.1375 11.6 10.9719 11.0437 10.6406 10.4438C10.3094 9.84375 9.7625 9.1125 9 8.25C8.2375 9.1125 7.69063 9.84375 7.35938 10.4438C7.02812 11.0437 6.8625 11.6 6.8625 12.1125C6.8625 12.7125 7.06875 13.2188 7.48125 13.6313C7.89375 14.0438 8.4 14.25 9 14.25Z" fill="url(#grad)"/>
  </g>
</svg>
